<?xml version="1.0" encoding="UTF-8" standalone="no"?>
<!-- Created with Inkscape (http://www.inkscape.org/) -->

<svg
   xmlns:dc="http://purl.org/dc/elements/1.1/"
   xmlns:cc="http://creativecommons.org/ns#"
   xmlns:rdf="http://www.w3.org/1999/02/22-rdf-syntax-ns#"
   xmlns:svg="http://www.w3.org/2000/svg"
   xmlns="http://www.w3.org/2000/svg"
   xmlns:sodipodi="http://sodipodi.sourceforge.net/DTD/sodipodi-0.dtd"
   xmlns:inkscape="http://www.inkscape.org/namespaces/inkscape"
   width="134.57031"
   height="158.78908"
   viewBox="0 0 134.57032 158.78908"
   id="svg3372"
   version="1.1"
   inkscape:version="0.48.5 r10040"
   sodipodi:docname="для изображения без линий.svg">
  <defs
     id="defs3374" />
  <sodipodi:namedview
     id="base"
     pagecolor="#ffffff"
     bordercolor="#666666"
     borderopacity="1.0"
     inkscape:pageopacity="0.0"
     inkscape:pageshadow="2"
     inkscape:zoom="2.61"
     inkscape:cx="119.11277"
     inkscape:cy="55.709711"
     inkscape:document-units="px"
     inkscape:current-layer="layer3"
     showgrid="false"
     showguides="true"
     inkscape:guide-bbox="true"
     inkscape:snap-intersection-paths="true"
     inkscape:object-nodes="true"
     units="px"
     inkscape:snap-to-guides="true"
     inkscape:window-width="1400"
     inkscape:window-height="1003"
     inkscape:window-x="-4"
     inkscape:window-y="-4"
     inkscape:window-maximized="1"
     inkscape:snap-bbox="false"
     inkscape:object-paths="false"
     inkscape:snap-center="true"
     inkscape:snap-object-midpoints="false"
     inkscape:snap-text-baseline="true"
     fit-margin-top="0"
     fit-margin-left="0"
     fit-margin-right="0"
     fit-margin-bottom="0">
    <inkscape:grid
       type="xygrid"
       id="grid4557"
       empspacing="5"
       visible="true"
       enabled="true"
       snapvisiblegridlinesonly="true"
       originx="-159.76563px"
       originy="-74.765628px" />
  </sodipodi:namedview>
  <metadata
     id="metadata3377">
    <rdf:RDF>
      <cc:Work
         rdf:about="">
        <dc:format>image/svg+xml</dc:format>
        <dc:type
           rdf:resource="http://purl.org/dc/dcmitype/StillImage" />
        <dc:title></dc:title>
      </cc:Work>
    </rdf:RDF>
  </metadata>
  <g
     inkscape:groupmode="layer"
     id="layer3"
     inkscape:label="Text letter"
     style="display:inline"
     transform="translate(-159.76564,-66.445304)">
    <g
       style="font-size:80px;font-style:normal;font-weight:normal;text-align:center;line-height:125%;letter-spacing:0px;word-spacing:0px;text-anchor:middle;fill:#000000;fill-opacity:1;stroke:none;display:inline;font-family:Universalia;-inkscape-font-specification:Universalia"
       id="text3393">
      <path
         d="m 254.10158,66.445302 7.03125,0 -5.66406,12.988282 c 0.71604,0.260547 1.41591,0.504687 2.09961,0.732422 0.68349,0.227994 1.41591,0.472134 2.19726,0.732422 3.58062,1.367315 6.02203,2.050908 7.32422,2.050781 1.23687,1.27e-4 2.29481,-0.569534 3.17383,-1.708984 0.87879,-1.139194 1.4159,-3.369009 1.61133,-6.689454 l 3.61328,0 3.41797,41.796879 -3.41797,0 c -3.38554,-10.35146 -7.84517,-18.196505 -13.37891,-23.535159 -1.4975,-1.367069 -3.02745,-2.620323 -4.58984,-3.759766 -1.5626,-1.139201 -3.22276,-2.16459 -4.98047,-3.076172 L 204.39454,196.13281 c 0.7161,0.52085 1.43224,1.04168 2.14844,1.5625 0.71609,0.52085 1.43224,1.00913 2.14844,1.46485 7.94265,4.81771 16.08066,7.22656 24.41406,7.22656 4.88273,0 9.5865,-0.61849 14.11133,-1.85547 4.52464,-1.23697 8.93545,-3.05989 13.23243,-5.46875 l 0,-38.28125 c -1.1e-4,-6.64057 -0.52094,-10.97 -1.5625,-12.98829 -0.97667,-2.01816 -2.53917,-3.58066 -4.6875,-4.6875 -2.08344,-1.1067 -5.79437,-1.66008 -11.13282,-1.66015 l 0,-3.71094 51.26954,0 0,3.71094 -2.44141,0 c -5.14336,7e-5 -8.62643,1.69277 -10.44922,5.07812 -1.30221,2.47402 -1.95325,7.22662 -1.95312,14.25782 l 0,40.52734 c -3.77617,2.01824 -7.4871,3.77605 -11.13282,5.27344 -3.64594,1.4974 -7.32432,2.70182 -11.03515,3.61328 -7.42198,1.88802 -15.52744,2.83203 -24.31641,2.83203 -6.38028,0 -12.32103,-0.50456 -17.82227,-1.51367 -5.50136,-1.00911 -10.69341,-2.49023 -15.57617,-4.44336 l -7.91016,18.16407 -6.83594,0 9.08204,-20.80079 c -3.71098,-2.01822 -7.1615,-4.34569 -10.35157,-6.98242 -3.19013,-2.6367 -6.15237,-5.64777 -8.88672,-9.0332 -9.96095,-12.30466 -14.94141,-26.49735 -14.9414,-42.57813 -1e-5,-11.65357 2.79946,-22.81893 8.39843,-33.4961 6.64061,-12.695201 15.75518,-22.460817 27.34376,-29.296875 9.63536,-5.66393 21.09368,-8.495959 34.375,-8.496094 4.81762,1.35e-4 9.1796,0.39076 13.08594,1.171875 0.91136,0.195447 1.88793,0.423311 2.92968,0.683594 1.04158,0.26055 2.1809,0.58607 3.41797,0.976562 z M 231.7383,81.386709 c -16.86205,1.29e-4 -29.68755,6.673299 -38.47657,20.019531 -7.3568,11.26312 -11.03518,24.67457 -11.03516,40.23438 -2e-5,12.63026 2.44138,24.15369 7.32422,34.57031 2.86455,6.18493 6.18486,11.2956 9.96094,15.33204 L 246.58205,83.535147 c -4.36207,-1.432164 -9.30998,-2.148309 -14.84375,-2.148438 z"
         style="font-size:200.00001526px;font-variant:normal;font-stretch:normal;word-spacing:-70px;font-family:Times New Roman;-inkscape-font-specification:Times New Roman"
         id="path2986"
         inkscape:connector-curvature="0" />
    </g>
  </g>
</svg>
